<?xml version="1.0" encoding="utf-8"?>
<!-- Generator: Adobe Illustrator 16.0.4, SVG Export Plug-In . SVG Version: 6.00 Build 0)  -->
<!DOCTYPE svg PUBLIC "-//W3C//DTD SVG 1.1//EN" "http://www.w3.org/Graphics/SVG/1.1/DTD/svg11.dtd">
<svg version="1.1" id="Layer_1" xmlns="http://www.w3.org/2000/svg" xmlns:xlink="http://www.w3.org/1999/xlink" x="0px" y="0px"
	 width="417.812px" height="61.063px" viewBox="0 0 417.812 61.063" enable-background="new 0 0 417.812 61.063"
	 xml:space="preserve">
<path fill="#FFFFFF" d="M2,2h111.064v57.064H2V2z M0,61.063h115.063V0H0V61.063z"/>
<g>
	<defs>
		<rect id="SVGID_1_" width="417.812" height="61.063"/>
	</defs>
	<clipPath id="SVGID_2_">
		<use xlink:href="#SVGID_1_"  overflow="visible"/>
	</clipPath>
	<path clip-path="url(#SVGID_2_)" fill="#FFFFFF" d="M57.456,34.75v-2.327c5.006-0.2,10.252-0.025,15.225,0.606v2.326
		c-0.497,0.191-0.895,0.204-1.417,0.204c-0.59,0.395-1.177,0.803-1.416,1.518c-0.278,0.835-0.45,2.158-0.505,3.034
		c-0.083,1.328-0.011,7.938,0.302,8.952c-3.826,1.709-8.528,2.427-12.695,2.427c-2.217,0-6.315-0.288-8.296-1.212
		c-1.902-0.888-3.77-2.151-5.26-3.642c-0.937-0.938-1.618-2.121-2.302-3.237c-3.709-6.071-4.265-14.038-2.022-20.762
		c0.739-2.22,1.777-4.669,3.313-6.475c2.668-3.14,5.27-4.597,9.172-5.766c3.774-1.133,7.829-1.069,11.616,0l3.946,1.112
		c0.218,0.062,0.466-0.003,0.708,0.101c0.333,0.142,1.523,0.766,1.82,0.708c0,3.233,0.3,6.388,0.608,9.611l-2.023,0.302
		c-0.443-1.62-0.775-3.436-1.72-4.855c-1.33-1.995-3.211-3.269-5.463-3.945c-4.883-1.464-9.82,0.702-12.696,4.856
		c-2.24,3.235-3.247,7.466-3.439,11.305c-0.153,3.07-0.073,6.56,0.91,9.51c0.754,2.261,2.98,5.898,4.856,7.333
		c0.835,0.639,1.93,1.199,2.933,1.519c2.335,0.742,7.61,0.977,8.853-1.821c0.807-1.817,0.506-4.239,0.506-6.171
		C62.97,35.187,61.731,34.75,57.456,34.75"/>
	<path clip-path="url(#SVGID_2_)" fill="#FFFFFF" d="M30.065,39.808c0.044-1.722-0.283-3.883-1.213-5.361
		c-1.737-2.758-5.613-3.917-8.675-3.237v8.599c0,1.544-0.175,5.729,0.404,7.233c0.374,0.969,1.333,1.257,2.259,1.349
		c3.246,0.324,5.9-1.619,6.821-4.789c0.32-1.103,0.339-2.349,0.404-3.488V39.808z M20.178,20.308v7.36
		c3.465,0,5.616-0.75,7.157-4.089c0.444-0.96,0.732-2.202,0.708-3.271v-0.403c-0.216-3.461-1.393-6.661-5.235-6.981
		c-0.849-0.07-1.773,0-2.63,0V20.308z M13.5,39.808v-19.5c0-1.644,0.088-3.301-0.236-4.922c-0.065-0.325-0.076-0.735-0.169-1.045
		c-0.039-0.132-0.306-0.408-0.404-0.506c-0.968-0.967-2.007-0.911-3.314-0.911v-2.427h16.061c4.144,0,7.404,2.118,8.606,6.204
		c0.283,0.963,0.475,2.594,0.271,3.607c0.101,0.567-0.129,1.189-0.271,1.721c-0.762,2.856-3.857,5.909-6.812,6.55
		c0.798,0.199,1.659,0.217,2.429,0.506c2.772,1.039,5.547,2.345,6.474,5.463c0.445,1.497,0.445,3.109,0.505,4.653v0.606
		c-0.088,0.775-0.063,1.62-0.201,2.377c-0.267,1.46-0.932,3.018-1.753,4.249c-2.72,4.079-6.89,4.351-11.373,4.351H9.377v-2.326
		c0.845,0.049,1.794-0.072,2.605-0.305C14.03,46.479,13.5,42.104,13.5,39.808"/>
	<path clip-path="url(#SVGID_2_)" fill="#FFFFFF" d="M92.66,21.726c0.176-4.588-1.348-8.506-6.348-8.801
		c-0.684-0.04-2.184,0.223-2.326,0.203v8.598V30.4c4.113,0,6.837-1.172,8.068-5.539C92.331,23.875,92.747,22.774,92.66,21.726
		 M77.308,21.726c0-1.824,0.058-3.645-0.1-5.463c-0.261-2.988-1.2-3.338-4.021-3.338v-2.428h15.655c1.122,0,2.313-0.083,3.413,0.1
		c0.852,0.142,1.707,0.682,2.428,1.114c0.792,0.475,1.713,1.018,2.327,1.719c1.937,2.214,2.48,5.462,2.124,8.296
		c0,0.063,0.012,0.141,0,0.203c-0.289,1.636-0.534,3.442-1.314,4.932c-0.135,0.258-0.481,0.577-0.676,0.809
		c-1.228,1.473-2.418,2.387-4.08,3.337l5.16,8.701c1.149,1.938,3.743,7.253,5.564,8.345c0.37,0.223,1.471,0.472,1.897,0.405v2.327
		c-1.451,0-7.529,0.418-8.979-0.911c-0.856-0.784-1.388-1.829-1.922-2.832l-7.46-14.011h-3.338v9.661
		c0,1.429,0.022,4.717,1.618,5.463c0.511,0.238,2.03,0.338,2.63,0.303v2.327H73.187v-2.327c0.697,0,2.35-0.041,2.908-0.506
		c1.263-1.052,1.213-3.814,1.213-5.26V21.726z"/>
	<path clip-path="url(#SVGID_2_)" fill="#FFFFFF" d="M159.473,55.257h-2.402l2.148-12.859h3.447c1.118,0,1.935,0.024,2.45,0.071
		c0.515,0.047,1.017,0.215,1.507,0.504c0.49,0.289,0.886,0.705,1.187,1.248c0.302,0.543,0.452,1.151,0.452,1.823
		c0,0.892-0.243,1.682-0.73,2.369c-0.487,0.688-1.055,1.142-1.705,1.361s-1.446,0.329-2.388,0.329h-3.099L159.473,55.257z
		 M161.31,44.273l-0.65,3.938h2.28c0.804,0,1.366-0.053,1.686-0.156c0.32-0.104,0.603-0.329,0.848-0.678s0.367-0.771,0.367-1.268
		c0-0.465-0.11-0.846-0.329-1.145c-0.221-0.297-0.481-0.488-0.783-0.569c-0.301-0.082-0.841-0.123-1.62-0.123H161.31z"/>
	<path clip-path="url(#SVGID_2_)" fill="#FFFFFF" d="M176.854,52.553c-0.88,1.96-2.274,2.939-4.183,2.939
		c-1.256,0-2.244-0.386-2.963-1.158c-0.719-0.772-1.078-1.8-1.078-3.081c0-1.633,0.453-3.011,1.361-4.136
		c0.908-1.124,2.074-1.686,3.499-1.686c1.282,0,2.25,0.404,2.907,1.215c0.656,0.811,0.985,1.916,0.985,3.316
		c0,0.232-0.01,0.483-0.029,0.753h-6.585c-0.044,0.271-0.066,0.509-0.066,0.717c0,0.722,0.175,1.303,0.523,1.742
		c0.348,0.439,0.843,0.659,1.484,0.659c0.992,0,1.746-0.593,2.26-1.78L176.854,52.553z M175.383,49.351
		c0-1.621-0.628-2.431-1.884-2.431c-1.3,0-2.135,0.81-2.506,2.431H175.383z"/>
	<path clip-path="url(#SVGID_2_)" fill="#FFFFFF" d="M180.64,55.257h-2.11l1.601-9.581h1.941l-0.433,2.61
		c0.822-1.916,1.927-2.874,3.315-2.874c0.057,0,0.142,0.004,0.255,0.01l-0.273,2.355c-0.208-0.013-0.365-0.02-0.471-0.02
		c-0.522,0-1.013,0.139-1.474,0.415c-0.462,0.276-0.824,0.647-1.084,1.116c-0.261,0.468-0.479,1.235-0.655,2.303L180.64,55.257z"/>
	<path clip-path="url(#SVGID_2_)" fill="#FFFFFF" d="M186.657,52.441c0.371,0.954,1.127,1.432,2.271,1.432
		c0.571,0,1.021-0.119,1.351-0.354c0.33-0.235,0.495-0.535,0.495-0.899c0-0.27-0.112-0.483-0.335-0.641
		c-0.223-0.157-0.601-0.311-1.135-0.462c-0.86-0.238-1.498-0.458-1.912-0.659c-0.415-0.201-0.763-0.509-1.046-0.923
		c-0.283-0.415-0.424-0.89-0.424-1.423c0-0.835,0.317-1.562,0.952-2.181c0.634-0.619,1.529-0.928,2.684-0.928
		c1.878,0,3.197,0.753,3.957,2.261l-1.818,0.584c-0.421-0.835-1.115-1.253-2.082-1.253c-0.434,0-0.801,0.101-1.102,0.302
		c-0.302,0.201-0.452,0.471-0.452,0.81c0,0.239,0.074,0.437,0.221,0.594s0.444,0.299,0.89,0.424
		c1.018,0.302,1.773,0.563,2.266,0.787c0.493,0.223,0.882,0.54,1.168,0.951c0.286,0.411,0.428,0.884,0.428,1.418
		c0,0.904-0.347,1.661-1.041,2.271c-0.693,0.608-1.722,0.913-3.085,0.913c-2.179,0-3.602-0.845-4.267-2.534L186.657,52.441z"/>
	<path clip-path="url(#SVGID_2_)" fill="#FFFFFF" d="M198.592,55.502c-0.71,0-1.396-0.157-2.058-0.472
		c-0.663-0.314-1.169-0.812-1.517-1.492c-0.348-0.682-0.523-1.493-0.523-2.436c0-1.526,0.449-2.847,1.347-3.962
		c0.898-1.114,2.073-1.672,3.523-1.672c1.194,0,2.148,0.4,2.864,1.201c0.716,0.801,1.074,1.876,1.074,3.227
		c0,1.388-0.427,2.669-1.281,3.844S200.024,55.502,198.592,55.502 M198.611,53.778c0.854,0,1.482-0.44,1.884-1.323
		c0.402-0.882,0.603-1.807,0.603-2.774c0-1.658-0.641-2.486-1.922-2.486c-0.898,0-1.542,0.474-1.931,1.422
		c-0.389,0.948-0.584,1.893-0.584,2.836c0,0.798,0.188,1.385,0.565,1.762S198.065,53.778,198.611,53.778"/>
	<path clip-path="url(#SVGID_2_)" fill="#FFFFFF" d="M212.232,55.257h-2.11l0.98-5.756c0.067-0.434,0.104-0.804,0.104-1.111
		c0-0.352-0.099-0.648-0.297-0.891c-0.198-0.241-0.498-0.362-0.899-0.362c-0.641,0-1.206,0.324-1.696,0.974
		c-0.489,0.651-0.835,1.595-1.036,2.832l-0.725,4.314h-2.111l1.602-9.581h1.959l-0.376,2.233c0.596-1.118,1.149-1.813,1.658-2.087
		s1.005-0.41,1.488-0.41c0.697,0,1.302,0.237,1.813,0.712c0.512,0.474,0.768,1.135,0.768,1.982c0,0.333-0.062,0.864-0.188,1.593
		L212.232,55.257z"/>
	<path clip-path="url(#SVGID_2_)" fill="#FFFFFF" d="M222.755,55.257h-2.082c-0.013-0.17-0.019-0.308-0.019-0.414
		c0-0.459,0.057-1.009,0.17-1.649c-0.314,0.717-0.767,1.28-1.356,1.691c-0.591,0.411-1.241,0.617-1.95,0.617
		c-0.854,0-1.55-0.266-2.087-0.796c-0.537-0.531-0.806-1.186-0.806-1.965c0-1.073,0.479-1.928,1.437-2.561
		c0.958-0.636,2.458-0.953,4.499-0.953c0.264,0,0.571,0.013,0.922,0.038c0.045-0.289,0.067-0.519,0.067-0.688
		c0-0.516-0.178-0.904-0.532-1.169c-0.355-0.264-0.797-0.396-1.324-0.396c-1.011,0-1.749,0.443-2.214,1.328l-1.884-0.593
		c0.791-1.558,2.188-2.337,4.192-2.337c1.192,0,2.135,0.271,2.826,0.811c0.69,0.541,1.036,1.259,1.036,2.157
		c0,0.384-0.151,1.395-0.452,3.033c-0.32,1.728-0.48,2.823-0.48,3.288C222.718,54.871,222.73,55.056,222.755,55.257 M221.295,50.368
		c-1.639,0.089-2.779,0.305-3.42,0.65s-0.961,0.852-0.961,1.517c0,0.383,0.129,0.695,0.387,0.938s0.609,0.362,1.055,0.362
		c0.641,0,1.234-0.279,1.781-0.843C220.683,52.431,221.069,51.555,221.295,50.368"/>
	<polygon clip-path="url(#SVGID_2_)" fill="#FFFFFF" points="227.354,55.257 225.14,55.257 227.287,42.398 229.5,42.398 	"/>
	<polygon clip-path="url(#SVGID_2_)" fill="#FFFFFF" points="237.254,55.257 234.87,55.257 237.018,42.398 239.401,42.398 	"/>
	<path clip-path="url(#SVGID_2_)" fill="#FFFFFF" d="M247.748,55.257h-2.11l0.98-5.756c0.067-0.434,0.104-0.804,0.104-1.111
		c0-0.352-0.099-0.648-0.297-0.891c-0.198-0.241-0.498-0.362-0.899-0.362c-0.641,0-1.206,0.324-1.696,0.974
		c-0.489,0.651-0.835,1.595-1.036,2.832l-0.726,4.314h-2.109l1.602-9.581h1.959l-0.377,2.233c0.597-1.118,1.149-1.813,1.658-2.087
		s1.005-0.41,1.488-0.41c0.697,0,1.302,0.237,1.813,0.712c0.512,0.474,0.768,1.135,0.768,1.982c0,0.333-0.062,0.864-0.188,1.593
		L247.748,55.257z"/>
	<path clip-path="url(#SVGID_2_)" fill="#FFFFFF" d="M254.135,45.676l-1.46,8.733c-0.194,1.174-0.409,2.039-0.646,2.595
		c-0.235,0.557-0.634,1.007-1.196,1.353c-0.562,0.345-1.27,0.518-2.124,0.518c-0.515,0-0.998-0.037-1.451-0.112l0.123-1.81
		c0.377,0.082,0.726,0.123,1.046,0.123c0.703,0,1.171-0.164,1.403-0.49c0.232-0.327,0.424-0.933,0.574-1.818l1.518-9.091H254.135z
		 M254.323,44.528h-2.214l0.387-2.262h2.214L254.323,44.528z"/>
	<path clip-path="url(#SVGID_2_)" fill="#FFFFFF" d="M262.735,55.257h-1.959l0.349-2.092c-0.811,1.514-1.894,2.271-3.25,2.271
		c-0.754,0-1.332-0.241-1.733-0.725c-0.402-0.484-0.604-1.021-0.604-1.611c0-0.308,0.082-0.942,0.245-1.904l0.924-5.52h2.109
		l-0.998,5.944c-0.088,0.547-0.132,0.883-0.132,1.009c0,0.308,0.097,0.553,0.292,0.734c0.195,0.183,0.449,0.273,0.763,0.273
		c0.434,0,0.876-0.179,1.328-0.537s0.772-0.777,0.961-1.258c0.188-0.481,0.361-1.186,0.519-2.115l0.678-4.051h2.111L262.735,55.257z
		"/>
	<path clip-path="url(#SVGID_2_)" fill="#FFFFFF" d="M267.418,55.257h-2.109l1.602-9.581h1.94l-0.434,2.61
		c0.822-1.916,1.928-2.874,3.316-2.874c0.056,0,0.141,0.004,0.254,0.01l-0.273,2.355c-0.207-0.013-0.364-0.02-0.471-0.02
		c-0.521,0-1.012,0.139-1.475,0.415c-0.461,0.276-0.822,0.647-1.083,1.116c-0.261,0.468-0.479,1.235-0.655,2.303L267.418,55.257z"/>
	<path clip-path="url(#SVGID_2_)" fill="#FFFFFF" d="M271.461,58.658l0.095-1.827c0.364,0.056,0.784,0.085,1.261,0.085
		c0.447,0,0.816-0.093,1.108-0.279c0.292-0.185,0.557-0.531,0.796-1.041l0.357-0.762l-2.347-9.157h2.263l1.45,6.595l3.165-6.595
		h1.847l-4.917,9.919c-0.459,0.917-0.811,1.553-1.057,1.904c-0.244,0.352-0.601,0.646-1.068,0.886
		c-0.468,0.238-1.072,0.357-1.813,0.357C272.249,58.743,271.869,58.714,271.461,58.658"/>
	<polygon clip-path="url(#SVGID_2_)" fill="#FFFFFF" points="295.53,44.415 292.261,44.415 290.443,55.257 288.078,55.257 
		289.896,44.415 286.628,44.415 286.967,42.398 295.869,42.398 	"/>
	<path clip-path="url(#SVGID_2_)" fill="#FFFFFF" d="M296.206,55.257h-2.109l1.602-9.581h1.94l-0.434,2.61
		c0.822-1.916,1.928-2.874,3.316-2.874c0.056,0,0.141,0.004,0.254,0.01l-0.273,2.355c-0.207-0.013-0.364-0.02-0.471-0.02
		c-0.521,0-1.012,0.139-1.475,0.415c-0.461,0.276-0.822,0.647-1.083,1.116c-0.261,0.468-0.479,1.235-0.655,2.303L296.206,55.257z"/>
	<path clip-path="url(#SVGID_2_)" fill="#FFFFFF" d="M303.009,55.257h-2.214l1.602-9.581h2.214L303.009,55.257z M304.798,44.565
		h-2.214l0.387-2.299h2.214L304.798,44.565z"/>
	<path clip-path="url(#SVGID_2_)" fill="#FFFFFF" d="M313.53,55.257h-2.082c-0.013-0.17-0.019-0.308-0.019-0.414
		c0-0.459,0.057-1.009,0.17-1.649c-0.314,0.717-0.767,1.28-1.356,1.691c-0.591,0.411-1.241,0.617-1.95,0.617
		c-0.854,0-1.55-0.266-2.087-0.796c-0.537-0.531-0.806-1.186-0.806-1.965c0-1.073,0.479-1.928,1.437-2.561
		c0.958-0.636,2.458-0.953,4.499-0.953c0.264,0,0.571,0.013,0.922,0.038c0.045-0.289,0.067-0.519,0.067-0.688
		c0-0.516-0.178-0.904-0.532-1.169c-0.355-0.264-0.797-0.396-1.324-0.396c-1.011,0-1.749,0.443-2.214,1.328l-1.884-0.593
		c0.791-1.558,2.188-2.337,4.192-2.337c1.192,0,2.135,0.271,2.826,0.811c0.69,0.541,1.036,1.259,1.036,2.157
		c0,0.384-0.151,1.395-0.452,3.033c-0.32,1.728-0.48,2.823-0.48,3.288C313.493,54.871,313.506,55.056,313.53,55.257 M312.07,50.368
		c-1.639,0.089-2.779,0.305-3.42,0.65s-0.961,0.852-0.961,1.517c0,0.383,0.129,0.695,0.387,0.938s0.609,0.362,1.055,0.362
		c0.641,0,1.234-0.279,1.781-0.843C311.458,52.431,311.845,51.555,312.07,50.368"/>
	<polygon clip-path="url(#SVGID_2_)" fill="#FFFFFF" points="318.128,55.257 315.914,55.257 318.062,42.398 320.274,42.398 	"/>
	<polygon clip-path="url(#SVGID_2_)" fill="#FFFFFF" points="333.361,55.257 325.646,55.257 327.793,42.398 330.243,42.398 
		328.424,53.242 333.7,53.242 	"/>
	<path clip-path="url(#SVGID_2_)" fill="#FFFFFF" d="M342.894,55.257h-2.082c-0.013-0.17-0.019-0.308-0.019-0.414
		c0-0.459,0.057-1.009,0.17-1.649c-0.314,0.717-0.767,1.28-1.356,1.691c-0.591,0.411-1.241,0.617-1.95,0.617
		c-0.854,0-1.55-0.266-2.087-0.796c-0.537-0.531-0.806-1.186-0.806-1.965c0-1.073,0.479-1.928,1.437-2.561
		c0.958-0.636,2.458-0.953,4.499-0.953c0.264,0,0.571,0.013,0.922,0.038c0.045-0.289,0.067-0.519,0.067-0.688
		c0-0.516-0.178-0.904-0.532-1.169c-0.355-0.264-0.797-0.396-1.324-0.396c-1.011,0-1.749,0.443-2.214,1.328l-1.884-0.593
		c0.791-1.558,2.188-2.337,4.192-2.337c1.192,0,2.135,0.271,2.826,0.811c0.69,0.541,1.036,1.259,1.036,2.157
		c0,0.384-0.151,1.395-0.452,3.033c-0.32,1.728-0.48,2.823-0.48,3.288C342.856,54.871,342.869,55.056,342.894,55.257
		 M341.434,50.368c-1.639,0.089-2.779,0.305-3.42,0.65s-0.961,0.852-0.961,1.517c0,0.383,0.129,0.695,0.387,0.938
		s0.609,0.362,1.055,0.362c0.641,0,1.234-0.279,1.781-0.843C340.821,52.431,341.208,51.555,341.434,50.368"/>
	<polygon clip-path="url(#SVGID_2_)" fill="#FFFFFF" points="354.288,55.257 352.309,55.257 351.584,48.446 348.814,55.257 
		346.874,55.257 345.441,45.676 347.618,45.676 348.484,52.299 351.254,45.676 353.157,45.676 353.854,52.281 356.812,45.676 
		358.678,45.676 	"/>
	<path clip-path="url(#SVGID_2_)" fill="#FFFFFF" d="M357.528,58.658l0.095-1.827c0.364,0.056,0.784,0.085,1.262,0.085
		c0.446,0,0.815-0.093,1.107-0.279c0.292-0.185,0.557-0.531,0.796-1.041l0.357-0.762l-2.347-9.157h2.263l1.45,6.595l3.164-6.595
		h1.848l-4.917,9.919c-0.459,0.917-0.811,1.553-1.057,1.904c-0.244,0.352-0.601,0.646-1.068,0.886
		c-0.468,0.238-1.072,0.357-1.813,0.357C358.316,58.743,357.937,58.714,357.528,58.658"/>
	<path clip-path="url(#SVGID_2_)" fill="#FFFFFF" d="M375.459,52.553c-0.879,1.96-2.273,2.939-4.183,2.939
		c-1.256,0-2.244-0.386-2.963-1.158s-1.078-1.8-1.078-3.081c0-1.633,0.453-3.011,1.361-4.136c0.907-1.124,2.073-1.686,3.499-1.686
		c1.281,0,2.25,0.404,2.906,1.215s0.984,1.916,0.984,3.316c0,0.232-0.009,0.483-0.028,0.753h-6.585
		c-0.044,0.271-0.065,0.509-0.065,0.717c0,0.722,0.174,1.303,0.522,1.742s0.844,0.659,1.484,0.659c0.992,0,1.745-0.593,2.261-1.78
		L375.459,52.553z M373.989,49.351c0-1.621-0.628-2.431-1.884-2.431c-1.3,0-2.136,0.81-2.506,2.431H373.989z"/>
	<path clip-path="url(#SVGID_2_)" fill="#FFFFFF" d="M379.245,55.257h-2.109l1.602-9.581h1.94l-0.434,2.61
		c0.822-1.916,1.928-2.874,3.316-2.874c0.056,0,0.141,0.004,0.254,0.01l-0.273,2.355c-0.207-0.013-0.364-0.02-0.471-0.02
		c-0.521,0-1.013,0.139-1.475,0.415c-0.461,0.276-0.822,0.647-1.083,1.116c-0.261,0.468-0.479,1.235-0.655,2.303L379.245,55.257z"/>
	<path clip-path="url(#SVGID_2_)" fill="#FFFFFF" d="M385.262,52.441c0.371,0.954,1.128,1.432,2.271,1.432
		c0.571,0,1.022-0.119,1.353-0.354c0.329-0.235,0.494-0.535,0.494-0.899c0-0.27-0.111-0.483-0.334-0.641
		c-0.224-0.157-0.602-0.311-1.137-0.462c-0.859-0.238-1.497-0.458-1.911-0.659c-0.415-0.201-0.764-0.509-1.046-0.923
		c-0.282-0.415-0.424-0.89-0.424-1.423c0-0.835,0.317-1.562,0.951-2.181c0.635-0.619,1.529-0.928,2.686-0.928
		c1.877,0,3.196,0.753,3.956,2.261l-1.818,0.584c-0.421-0.835-1.114-1.253-2.082-1.253c-0.433,0-0.801,0.101-1.103,0.302
		c-0.301,0.201-0.451,0.471-0.451,0.81c0,0.239,0.073,0.437,0.221,0.594c0.146,0.157,0.444,0.299,0.891,0.424
		c1.018,0.302,1.772,0.563,2.266,0.787c0.493,0.223,0.883,0.54,1.168,0.951c0.286,0.411,0.429,0.884,0.429,1.418
		c0,0.904-0.347,1.661-1.041,2.271c-0.693,0.608-1.723,0.913-3.085,0.913c-2.18,0-3.602-0.845-4.268-2.534L385.262,52.441z"/>
	<path clip-path="url(#SVGID_2_)" fill="#FFFFFF" d="M134.023,16.251c0-3.031-0.06-3.361-1.32-3.511l-0.811-0.121
		c-0.27-0.149-0.33-1.05,0.12-1.08c2.281-0.15,4.472-0.27,7.474-0.27c2.881,0,4.802,0.33,6.122,1.111
		c1.291,0.78,2.072,2.04,2.072,3.811c0,2.521-2.132,3.512-3.062,3.752c-0.3,0.06-0.6,0.18-0.6,0.33c0,0.09,0.15,0.18,0.42,0.24
		c2.371,0.511,4.382,2.071,4.412,4.982c0.03,2.762-1.621,4.383-3.512,5.043c-1.89,0.661-4.142,0.75-5.972,0.75
		c-1.081,0-2.222-0.12-3.092-0.12c-1.47,0-2.941,0.03-4.652,0.09c-0.24-0.18-0.24-0.96,0-1.05l0.871-0.18
		c1.35-0.27,1.53-0.48,1.53-3.182V16.251z M138.166,19.162c0,0.781,0.03,0.841,1.591,0.841c2.581,0,3.541-1.651,3.541-3.451
		c0-2.612-1.62-3.902-3.691-3.902c-1.411,0-1.441,0.24-1.441,1.56V19.162z M138.166,26.096c0,2.341,0.3,3.812,2.641,3.812
		c2.221,0,3.392-1.711,3.392-4.142c0-2.611-1.501-4.442-4.382-4.442c-1.651,0-1.651,0.03-1.651,1.23V26.096z"/>
	<path clip-path="url(#SVGID_2_)" fill="#FFFFFF" d="M160.674,26.846c0,2.792,0.18,3.001,1.531,3.212l1.2,0.15
		c0.21,0.18,0.21,0.871,0,1.05c-1.951-0.06-3.421-0.09-4.862-0.09s-2.941,0.03-4.712,0.09c-0.24-0.18-0.24-0.87,0-1.05l1.02-0.15
		c1.351-0.211,1.531-0.42,1.531-3.212v-1.5c0-1.501-0.03-1.981-0.811-3.572L152,14.39c-0.6-1.23-0.87-1.68-1.921-1.891l-1.02-0.179
		c-0.271-0.241-0.24-0.961,0.119-1.051c1.351,0.06,2.462,0.09,4.233,0.09c1.83,0,3.361-0.03,4.382-0.09
		c0.27,0.12,0.33,0.81,0.06,1.051l-1.021,0.239c-0.54,0.12-0.72,0.241-0.72,0.271c0,0.24,0.15,0.69,0.78,2.1l1.411,3.212
		c0.45,0.991,1.02,2.191,1.381,2.941c0.87-1.47,1.71-3.211,2.521-4.742c1.14-2.131,1.56-3.121,1.56-3.481
		c0-0.181-0.299-0.301-1.02-0.42l-0.69-0.12c-0.24-0.151-0.271-0.901,0.03-1.051c1.2,0.06,2.281,0.09,3.361,0.09
		c1.141,0,2.071-0.03,2.941-0.09c0.361,0.12,0.361,0.84,0.12,1.051l-0.78,0.15c-0.54,0.12-1.11,0.3-1.44,0.72
		c-0.45,0.57-1.201,1.651-2.642,4.262l-1.89,3.421c-0.781,1.411-1.081,2.161-1.081,3.872V26.846z"/>
	<path clip-path="url(#SVGID_2_)" fill="#FFFFFF" d="M174.629,19.163c0,0.841,0.03,0.901,0.841,0.901h2.071
		c1.56,0,1.89-0.211,2.221-1.651l0.15-0.75c0.21-0.241,0.96-0.241,1.11,0.03c-0.06,0.96-0.09,2.04-0.09,3.181s0.03,2.221,0.09,3.182
		c-0.15,0.27-0.9,0.3-1.11,0.029l-0.15-0.75c-0.331-1.441-0.661-1.681-2.221-1.681h-2.071c-0.811,0-0.841,0.03-0.841,0.931v3.572
		c0,1.38,0.12,2.34,0.48,2.851c0.391,0.54,0.961,0.78,3.152,0.78c2.611,0,3.632-0.09,5.283-3.481c0.239-0.331,0.99-0.21,1.11,0.149
		c-0.12,1.561-0.84,3.993-1.261,4.803c-1.59-0.06-4.472-0.09-6.933-0.09h-3.902c-1.44,0-2.911,0.03-5.162,0.09
		c-0.24-0.18-0.24-0.901,0-1.051l1.411-0.21c1.35-0.18,1.53-0.39,1.53-3.151V15.651c0-2.732-0.18-2.942-1.53-3.182l-0.751-0.15
		c-0.27-0.18-0.24-0.87,0.06-1.051c1.411,0.061,2.882,0.091,4.322,0.091h6.363c1.921,0,3.632-0.03,4.022-0.091
		c0.03,0.481,0.24,2.642,0.39,4.653c-0.12,0.33-0.81,0.39-1.11,0.12c-0.33-1.051-0.751-1.951-1.141-2.371
		c-0.57-0.57-1.471-0.931-2.941-0.931h-2.401c-0.991,0-0.991,0.06-0.991,1.171V19.163z"/>
	<rect x="194.917" y="5.446" clip-path="url(#SVGID_2_)" fill="#F26A21" width="2.642" height="30.015"/>
	<path clip-path="url(#SVGID_2_)" fill="#FFFFFF" d="M227.661,27.777c0,1.261,0.06,1.861,0.63,1.981c0.12,0.12,0.091,0.63-0.09,0.72
		c-0.51,0.091-1.29,0.18-2.102,0.45c-1.05,0.331-3.631,0.721-5.312,0.721c-2.041,0-3.782-0.21-5.913-1.051
		c-3.512-1.41-5.913-4.742-5.913-9.064c0-3.752,1.681-7.053,5.283-9.064c2.041-1.11,4.472-1.591,7.022-1.591
		c3.331,0,4.982,0.72,5.943,0.72c0.09,0.901,0.12,3.002,0.42,4.833c-0.12,0.33-0.931,0.36-1.141,0.06
		c-0.96-2.821-2.852-4.232-5.643-4.232c-4.772,0-7.083,3.962-7.083,8.704c0,4.292,1.471,6.843,3.422,8.164
		c1.44,0.96,3.001,1.14,4.111,1.14c1.711,0,2.071-0.33,2.071-2.281v-1.891c0-1.621-0.181-1.8-1.621-2.011l-1.32-0.18
		c-0.33-0.18-0.33-0.87,0-1.05c2.13,0.06,3.602,0.09,5.072,0.09c1.44,0,2.911-0.03,3.932-0.09c0.24,0.18,0.24,0.87,0,1.05
		l-0.69,0.12c-0.9,0.18-1.08,0.45-1.08,2.071V27.777z"/>
	<path clip-path="url(#SVGID_2_)" fill="#FFFFFF" d="M252.24,21.174c0,6.543-4.382,10.475-10.835,10.475
		c-6.032,0-10.415-3.962-10.415-10.235c0-5.943,4.442-10.535,10.716-10.535C247.948,10.879,252.24,15.081,252.24,21.174
		 M241.466,12.26c-3.692,0-5.673,3.452-5.673,8.464c0,3.661,1.29,9.544,6.183,9.544c3.932,0,5.463-3.841,5.463-8.704
		C247.438,16.432,245.188,12.26,241.466,12.26"/>
	<path clip-path="url(#SVGID_2_)" fill="#FFFFFF" d="M261.152,19.403c0,0.811,0.029,0.9,0.84,0.9h2.312
		c1.591,0,1.891-0.21,2.221-1.68l0.149-0.72c0.211-0.271,0.961-0.241,1.142,0.029c-0.061,0.961-0.09,2.072-0.09,3.212
		c0,1.111,0.029,2.221,0.09,3.121c-0.181,0.27-0.931,0.301-1.142,0.031l-0.149-0.721c-0.33-1.441-0.63-1.681-2.221-1.681h-2.312
		c-0.811,0-0.84,0.091-0.84,0.901v4.051c0,2.792,0.18,3.002,1.53,3.212l1.11,0.15c0.211,0.18,0.211,0.871,0,1.049
		c-1.86-0.059-3.331-0.089-4.771-0.089c-1.381,0-2.882,0.03-4.683,0.089c-0.24-0.179-0.24-0.87,0-1.049l0.99-0.15
		c1.351-0.21,1.531-0.42,1.531-3.212V15.681c0-2.791-0.181-3.001-1.531-3.271l-0.6-0.09c-0.271-0.18-0.271-0.931,0.06-1.051
		c1.291,0.06,2.791,0.091,4.232,0.091h6.303c1.921,0,3.632-0.031,4.052-0.091c0,0.51,0,2.672,0.06,4.682
		c-0.12,0.331-0.78,0.361-1.14,0.12c-0.332-1.23-0.57-1.95-0.872-2.34c-0.509-0.631-1.409-0.991-2.94-0.991h-2.341
		c-0.99,0-0.99,0.06-0.99,1.23V19.403z"/>
	<path clip-path="url(#SVGID_2_)" fill="#FFFFFF" d="M277.599,19.403c0,0.811,0.029,0.9,0.84,0.9h2.312
		c1.591,0,1.891-0.21,2.221-1.68l0.149-0.72c0.211-0.271,0.961-0.241,1.142,0.029c-0.061,0.961-0.09,2.072-0.09,3.212
		c0,1.111,0.029,2.221,0.09,3.121c-0.181,0.27-0.931,0.301-1.142,0.031l-0.149-0.721c-0.33-1.441-0.63-1.681-2.221-1.681h-2.312
		c-0.811,0-0.84,0.091-0.84,0.901v4.051c0,2.792,0.18,3.002,1.53,3.212l1.11,0.15c0.21,0.18,0.21,0.871,0,1.049
		c-1.86-0.059-3.331-0.089-4.771-0.089c-1.381,0-2.882,0.03-4.683,0.089c-0.24-0.179-0.24-0.87,0-1.049l0.99-0.15
		c1.351-0.21,1.531-0.42,1.531-3.212V15.681c0-2.791-0.181-3.001-1.531-3.271l-0.6-0.09c-0.271-0.18-0.271-0.931,0.06-1.051
		c1.291,0.06,2.791,0.091,4.232,0.091h6.303c1.921,0,3.632-0.031,4.052-0.091c0,0.51,0,2.672,0.06,4.682
		c-0.12,0.331-0.78,0.361-1.14,0.12c-0.332-1.23-0.57-1.95-0.872-2.34c-0.509-0.631-1.409-0.991-2.94-0.991h-2.341
		c-0.99,0-0.99,0.06-0.99,1.23V19.403z"/>
	<rect x="296.536" y="5.446" clip-path="url(#SVGID_2_)" fill="#F26A21" width="2.641" height="30.015"/>
	<path clip-path="url(#SVGID_2_)" fill="#FFFFFF" d="M312.803,16.221c0-3.001-0.061-3.331-1.321-3.511l-0.81-0.12
		c-0.301-0.15-0.301-0.901,0.06-1.051c2.251-0.15,4.592-0.27,7.443-0.27c2.553,0,4.742,0.39,5.883,1.08
		c1.741,1.021,2.642,2.521,2.642,4.442c0,2.672-1.801,3.812-3.182,4.503c-0.3,0.15-0.3,0.33-0.15,0.66
		c1.981,4.022,3.212,6.273,4.652,7.503c0.78,0.631,1.561,0.811,2.011,0.841c0.271,0.15,0.271,0.6,0.12,0.78
		c-0.48,0.21-1.44,0.27-2.371,0.27c-2.762,0-4.502-0.99-5.822-3.151c-0.961-1.591-1.651-3.061-2.342-4.652
		c-0.359-0.811-0.84-1.051-1.59-1.051c-1.051,0-1.111,0.06-1.111,0.661v3.691c0,2.762,0.181,2.972,1.531,3.212l0.811,0.15
		c0.21,0.15,0.21,0.871,0,1.05c-1.591-0.06-2.972-0.09-4.412-0.09c-1.501,0-2.821,0.03-4.383,0.09c-0.239-0.18-0.239-0.9,0-1.05
		l0.811-0.15c1.351-0.24,1.531-0.45,1.531-3.212V16.221z M316.914,20.033c0,1.05,0.091,1.141,1.861,1.141
		c1.08,0,1.711-0.27,2.281-0.841c0.51-0.51,1.08-1.47,1.08-3.241c0-2.702-1.591-4.442-3.932-4.442c-1.23,0-1.23,0.09-1.291,1.53
		V20.033z"/>
	<path clip-path="url(#SVGID_2_)" fill="#FFFFFF" d="M350.888,21.174c0,6.543-4.382,10.475-10.835,10.475
		c-6.032,0-10.415-3.962-10.415-10.235c0-5.943,4.442-10.535,10.716-10.535C346.596,10.879,350.888,15.081,350.888,21.174
		 M340.113,12.26c-3.692,0-5.673,3.452-5.673,8.464c0,3.661,1.29,9.544,6.183,9.544c3.932,0,5.463-3.841,5.463-8.704
		C346.086,16.432,343.835,12.26,340.113,12.26"/>
	<path clip-path="url(#SVGID_2_)" fill="#FFFFFF" d="M361.062,21.654c-1.231,0-1.261,0.03-1.261,0.871v4.321
		c0,2.792,0.18,3.002,1.53,3.242l0.96,0.12c0.241,0.18,0.241,0.871,0,1.049c-1.71-0.059-3.211-0.089-4.562-0.089
		c-1.44,0-2.941,0.03-4.472,0.089c-0.24-0.179-0.24-0.87,0-1.049l0.72-0.09c1.351-0.27,1.531-0.48,1.531-3.272V15.681
		c0-2.791-0.181-3.001-1.531-3.271l-0.72-0.09c-0.24-0.18-0.24-0.871,0-1.051c1.471,0.06,3.031,0.091,4.472,0.091
		c1.351,0,2.852-0.031,4.172-0.091c0.24,0.18,0.24,0.871,0,1.051l-0.63,0.09c-1.291,0.27-1.471,0.48-1.471,3.271v3.482
		c0,0.87,0.029,0.901,1.261,0.901h6.242c1.261,0,1.261-0.031,1.261-0.901v-3.482c0-2.791-0.15-3.001-1.53-3.241l-0.811-0.12
		c-0.24-0.18-0.24-0.871,0-1.051c1.649,0.06,3.121,0.091,4.562,0.091c1.47,0,2.851-0.031,4.231-0.091c0.24,0.18,0.24,0.871,0,1.051
		l-0.602,0.09c-1.379,0.27-1.56,0.48-1.56,3.271v11.165c0,2.792,0.181,3.002,1.56,3.242l0.722,0.12c0.24,0.18,0.24,0.871,0,1.049
		c-1.501-0.059-2.973-0.089-4.352-0.089c-1.501,0-2.972,0.03-4.413,0.089c-0.239-0.179-0.239-0.87,0-1.049l0.661-0.09
		c1.38-0.27,1.53-0.48,1.53-3.272v-4.321c0-0.841,0-0.871-1.261-0.871H361.062z"/>
	<path clip-path="url(#SVGID_2_)" fill="#FFFFFF" d="M379.698,16.222c0-2.852-0.062-3.422-1.441-3.572l-0.569-0.06
		c-0.302-0.15-0.302-1.021,0.06-1.051c2.521-0.15,4.862-0.27,8.044-0.27c2.461,0,4.922,0.24,6.993,0.991
		c3.932,1.411,6.093,4.952,6.093,8.704c0,4.022-1.921,7.263-5.372,8.974c-2.041,1.021-4.503,1.41-7.594,1.41
		c-1.411,0-2.911-0.18-3.992-0.18c-1.44,0-2.972,0.03-4.683,0.09c-0.239-0.18-0.239-0.9,0-1.05l0.931-0.15
		c1.351-0.24,1.531-0.45,1.531-3.212V16.222z M383.99,25.736c0,1.651,0.06,2.731,0.6,3.362c0.541,0.6,1.411,0.87,2.491,0.87
		c5.192,0,6.964-4.622,6.964-8.704c0-5.403-2.852-8.614-8.284-8.614c-0.811,0-1.381,0.15-1.561,0.39
		c-0.181,0.24-0.21,0.811-0.21,1.741V25.736z"/>
	<path clip-path="url(#SVGID_2_)" fill="#FFFFFF" d="M407.789,19.163c0,0.841,0.029,0.901,0.84,0.901h2.071
		c1.561,0,1.891-0.211,2.221-1.651l0.15-0.75c0.21-0.241,0.96-0.241,1.11,0.03c-0.06,0.96-0.09,2.04-0.09,3.181
		s0.03,2.221,0.09,3.182c-0.15,0.27-0.9,0.3-1.11,0.029l-0.15-0.75c-0.33-1.441-0.66-1.681-2.221-1.681h-2.071
		c-0.811,0-0.84,0.03-0.84,0.931v3.572c0,1.38,0.12,2.34,0.479,2.851c0.392,0.54,0.962,0.78,3.153,0.78
		c2.61,0,3.631-0.09,5.282-3.481c0.24-0.331,0.99-0.21,1.11,0.149c-0.12,1.561-0.841,3.993-1.261,4.803
		c-1.591-0.06-4.472-0.09-6.933-0.09h-3.902c-1.44,0-2.911,0.03-5.162,0.09c-0.24-0.18-0.24-0.901,0-1.051l1.41-0.21
		c1.351-0.18,1.531-0.39,1.531-3.151V15.651c0-2.732-0.181-2.942-1.531-3.182l-0.75-0.15c-0.271-0.18-0.239-0.87,0.06-1.051
		c1.411,0.061,2.882,0.091,4.322,0.091h6.363c1.921,0,3.632-0.03,4.021-0.091c0.03,0.481,0.24,2.642,0.391,4.653
		c-0.12,0.33-0.811,0.39-1.11,0.12c-0.33-1.051-0.751-1.951-1.141-2.371c-0.57-0.57-1.471-0.931-2.941-0.931h-2.401
		c-0.99,0-0.99,0.06-0.99,1.171V19.163z"/>
</g>
</svg>
